<svg width="19" height="15" viewBox="0 0 19 15" fill="none" xmlns="http://www.w3.org/2000/svg">
<path d="M13.7515 11.5183C11.4538 13.8695 6.39672 15.1163 2.27506 13.2405C3.86932 13.1992 5.36941 12.7189 6.62718 11.8457C6.81968 11.7197 6.71027 11.4284 6.47022 11.4309C5.20304 11.4103 4.0761 10.7511 3.54825 9.75551C3.9838 9.78297 4.40976 9.74402 4.81825 9.64514C5.08067 9.58572 5.0677 9.23699 4.80058 9.19371C3.39542 8.94436 2.34386 7.91066 2.1805 6.67122C2.59876 6.82186 3.04728 6.90692 3.49862 6.91974C3.61385 6.9224 3.72081 6.85732 3.75653 6.75877C3.79225 6.66006 3.74995 6.55237 3.65258 6.49494C2.97209 6.09228 2.48729 5.48488 2.28765 4.78442C2.25212 4.66008 2.1102 4.58484 1.9694 4.61613C1.82898 4.64743 1.74401 4.7736 1.77935 4.89795C1.93161 5.43211 2.22656 5.9195 2.63523 6.32349C2.42318 6.26456 2.21753 6.18683 2.02335 6.09128C1.85755 6.00389 1.62784 6.12241 1.63404 6.29419C1.61712 7.5591 2.40495 8.70549 3.60577 9.29392C3.46854 9.28626 3.32963 9.27062 3.19109 9.24764C3.00329 9.21186 2.82866 9.38564 2.89332 9.5466C3.31854 10.722 4.42424 11.5815 5.75477 11.8254C4.43251 12.5813 2.80948 12.9045 1.23045 12.7369C0.961071 12.701 0.825349 13.0374 1.05788 13.1627C5.4352 15.7367 11.4243 14.6097 14.1325 11.8367C14.3615 11.6098 13.9953 11.2997 13.7515 11.5183Z" fill="#1DA1F2"/>
<path d="M18.7358 3.23452C18.6608 3.15562 18.5356 3.12966 18.429 3.17177C18.1183 3.29395 17.7976 3.39515 17.469 3.47505C17.8472 3.11434 18.1343 2.68288 18.3053 2.20831C18.3826 2.01373 18.1202 1.82579 17.9218 1.93815C17.2882 2.27107 16.6033 2.5101 15.8841 2.64926C15.1728 2.02887 14.2034 1.67549 13.2015 1.67549C10.9075 1.65951 9.08843 3.51467 9.41872 5.52248C6.76838 5.32456 4.30169 4.17418 2.60949 2.33649C2.5031 2.21164 2.26361 2.22829 2.17977 2.36661C1.84216 2.88113 1.66357 3.46923 1.66357 4.06714C1.6741 4.37442 2.17958 4.37159 2.18766 4.06714C2.18766 3.66382 2.28165 3.26615 2.46155 2.89961C4.30884 4.75528 6.93324 5.88203 9.72381 6.00571C9.89243 6.01752 10.0344 5.86621 9.99225 5.72173C9.21626 2.86715 13.3477 0.891806 15.6057 3.06124C15.6674 3.1195 15.758 3.1453 15.8477 3.12999C16.4238 3.02928 16.9804 2.86948 17.5102 2.65342C17.2321 3.07206 16.8376 3.42645 16.3576 3.68096C16.2514 3.73722 16.2043 3.85141 16.2443 3.95512C16.2841 4.05882 16.4016 4.12357 16.5233 4.11059C16.9507 4.06548 17.3703 3.98808 17.778 3.87955C17.4303 4.2331 17.0383 4.54987 16.6062 4.82619C16.4086 4.96768 16.5372 5.22685 16.5075 5.42177C16.5112 7.32771 15.714 9.35916 14.3504 10.8996C14.1432 11.1378 14.5466 11.4251 14.7639 11.1845C16.2689 9.48017 17.1094 7.24282 17.0265 5.12864C17.7015 4.67987 18.2818 4.13706 18.7529 3.51351C18.8181 3.42695 18.811 3.31342 18.7358 3.23452Z" fill="#1DA1F2"/>
</svg>
