<svg width="15" height="14" viewBox="0 0 15 14" fill="none" xmlns="http://www.w3.org/2000/svg">
<path d="M2.24 3.36999C1.84533 3.36999 1.51467 3.24733 1.248 3.00199C0.992 2.74599 0.864 2.43133 0.864 2.05799C0.864 1.68466 0.992 1.37533 1.248 1.12999C1.51467 0.873993 1.84533 0.745993 2.24 0.745993C2.63467 0.745993 2.96 0.873993 3.216 1.12999C3.48267 1.37533 3.616 1.68466 3.616 2.05799C3.616 2.43133 3.48267 2.74599 3.216 3.00199C2.96 3.24733 2.63467 3.36999 2.24 3.36999ZM3.344 4.42599V13.29H1.104V4.42599H3.344ZM10.4691 4.29799C11.5251 4.29799 12.3785 4.63399 13.0291 5.30599C13.6798 5.96733 14.0051 6.89533 14.0051 8.08999V13.29H11.7651V8.39399C11.7651 7.68999 11.5891 7.15133 11.2371 6.77799C10.8851 6.39399 10.4051 6.20199 9.79713 6.20199C9.17846 6.20199 8.68779 6.39399 8.32513 6.77799C7.97313 7.15133 7.79713 7.68999 7.79713 8.39399V13.29H5.55713V4.42599H7.79713V5.52999C8.09579 5.14599 8.47446 4.84733 8.93313 4.63399C9.40246 4.40999 9.91446 4.29799 10.4691 4.29799Z" fill="#0077B5"/>
</svg>
