<svg width="21" height="15" viewBox="0 0 21 15" fill="none" xmlns="http://www.w3.org/2000/svg">
<path d="M20.4955 5.71535L20.4954 5.72402C20.4954 6.27572 20.4952 9.32002 20.4597 9.81506L20.4589 9.82543L20.459 9.83583C20.4708 10.853 20.3154 11.8652 19.999 12.8324L19.9986 12.8335C19.9011 13.1364 19.7326 13.4119 19.5069 13.6371C19.1656 13.9692 18.7315 14.1907 18.2615 14.2727C14.9783 14.5246 12.1998 14.5697 9.02908 14.5246H9.0202C7.06167 14.5663 5.10266 14.4674 3.1584 14.2287C2.70078 14.1424 2.27935 13.9227 1.9476 13.5974C1.66405 13.2786 1.46381 12.895 1.36454 12.4808L1.36328 12.4758C1.21287 11.9009 1.12415 11.3117 1.09863 10.7182L1.0983 10.7121C0.967277 8.77128 0.967238 6.82389 1.09816 4.88306C1.09984 4.86303 1.10151 4.84297 1.10319 4.82288C1.14734 4.2935 1.19307 3.7453 1.31868 3.23747C1.44872 2.71175 1.65864 2.25547 2.01737 1.92591L2.01981 1.92364C2.34936 1.61267 2.76209 1.40308 3.20839 1.32005C5.71483 1.09723 8.23138 1.00725 10.7474 1.05052L10.7558 1.05052C13.2811 1.00913 15.8068 1.10212 18.3222 1.32909C18.8625 1.42896 19.3518 1.71019 19.7089 2.12541C20.2681 3.23766 20.5386 4.47191 20.4955 5.71535ZM8.44846 10.376V10.7947L8.81707 10.596C9.7277 10.1052 10.6644 9.63119 11.5624 9.17673L11.6402 9.13738C12.5603 8.67174 13.4389 8.22618 14.1977 7.80728L14.6048 7.58253L14.1928 7.36692L8.81438 4.55222L8.44846 4.36072V4.77372V10.376Z" stroke="#FF0000" stroke-width="0.5"/>
</svg>
